<?xml version="1.0" encoding="UTF-8" standalone="no"?>
<!DOCTYPE svg PUBLIC "-//W3C//DTD SVG 1.1//EN" "http://www.w3.org/Graphics/SVG/1.1/DTD/svg11.dtd">
<svg width="100%" height="100%" viewBox="0 0 341 131" version="1.1" xmlns="http://www.w3.org/2000/svg" xmlns:xlink="http://www.w3.org/1999/xlink" xml:space="preserve" xmlns:serif="http://www.serif.com/" style="fill-rule:evenodd;clip-rule:evenodd;stroke-linejoin:round;stroke-miterlimit:2;">
    <g transform="matrix(1,0,0,1,-419.496,-106.376)">
        <g id="ページ2" transform="matrix(0.907255,0,0,0.34886,419.496,106.376)">
            <rect x="0" y="0" width="375" height="375" style="fill:none;"/>
            <g transform="matrix(1.10223,0,0,2.86648,-23.6514,-380.806)">
                <text x="18.082px" y="243.643px" style="font-family:'Helvetica';font-size:111.652px;">S<tspan x="90.808px 151.159px 174.22px 228.302px " y="243.643px 243.643px 243.643px 243.643px ">eiko</tspan></text>
            </g>
            <g transform="matrix(1.10223,0,0,2.86648,-23.6514,-380.806)">
                <text x="110.176px" y="259.389px" style="font-family:'Helvetica';font-size:11.302px;fill:rgb(36,36,36);">J<tspan x="116.45px 122.451px 131.866px 138.522px 146.684px 152.967px 161.752px 168.744px 178.159px 184.815px 194.853px 202.027px 209.99px 216.2px 223.744px 231.108px 239.893px 246.467px " y="259.389px 259.389px 259.389px 259.389px 259.389px 259.389px 259.389px 259.389px 259.389px 259.389px 259.389px 259.389px 259.389px 259.389px 259.389px 259.389px 259.389px 259.389px "> O B C O M P A N Y</tspan></text>
            </g>
            <g transform="matrix(-0.154072,0,0,-0.400684,436.58,559.37)">
                <clipPath id="_clip1">
                    <rect x="407.399" y="613.971" width="1185.1" height="772.629"/>
                </clipPath>
                <g clip-path="url(#_clip1)">
                    <path d="M814.66,795.91L814.66,862.141L665.332,753.641L722.371,929.191L573.039,1037.69L757.621,1037.69L814.66,1213.24L871.703,1037.69L1518.12,1037.69L1591.86,1091.27L910.629,1091.27L814.66,1386.63L718.695,1091.27L408.141,1091.27L659.383,908.73L563.418,613.371L814.66,795.91" style="fill:rgb(253,190,14);fill-rule:nonzero;"/>
                </g>
            </g>
        </g>
    </g>
</svg>
