<?xml version="1.0" encoding="UTF-8" standalone="no"?>
<!DOCTYPE svg PUBLIC "-//W3C//DTD SVG 1.1//EN" "http://www.w3.org/Graphics/SVG/1.1/DTD/svg11.dtd">
<svg width="100%" height="100%" viewBox="0 0 319 206" version="1.1" xmlns="http://www.w3.org/2000/svg" xmlns:xlink="http://www.w3.org/1999/xlink" xml:space="preserve" xmlns:serif="http://www.serif.com/" style="fill-rule:evenodd;clip-rule:evenodd;stroke-linejoin:round;stroke-miterlimit:2;">
    <g id="ページ1" transform="matrix(0.850493,0,0,0.54802,0,0)">
        <rect x="0" y="0" width="375" height="375" style="fill:none;"/>
        <g transform="matrix(-0.938271,0,0,1.45614,313.367,1.34545)">
            <ellipse cx="128" cy="128" rx="128" ry="128" style="fill:rgb(250,208,44);"/>
            <clipPath id="_clip1">
                <ellipse cx="128" cy="128" rx="128" ry="128"/>
            </clipPath>
            <g clip-path="url(#_clip1)">
                <g transform="matrix(-0.261232,-1.50032e-17,-1.50032e-17,-0.383742,260.519,184.093)">
                    <rect x="0" y="-0" width="1001.81" height="256" style="fill:white;"/>
                </g>
            </g>
        </g>
        <g transform="matrix(2.09621,0,0,-3.25319,59.1094,395.937)">
            <path d="M67.399,115.892C36.054,117.896 10.105,91.948 12.109,60.602C13.765,34.693 34.693,13.766 60.602,12.109C91.947,10.105 117.896,36.053 115.892,67.399C114.235,93.308 93.307,114.236 67.399,115.892L67.399,115.892ZM87.545,38.199C89.59,45.225 90.811,53.307 90.975,62.001L111.95,62.001C111.49,50.854 107.211,40.682 100.389,32.75C97.259,34.943 92.884,36.797 87.545,38.199ZM27.612,32.75C20.79,40.682 16.51,50.854 16.051,62.001L37.026,62.001C37.189,53.307 38.41,45.225 40.456,38.199C35.115,36.796 30.74,34.943 27.612,32.75L27.612,32.75ZM40.445,89.768C38.405,82.749 37.188,74.68 37.025,66.001L16.051,66.001C16.508,77.095 20.749,87.223 27.514,95.139C30.697,92.982 35.103,91.154 40.445,89.768ZM62,66.001L41.025,66.001C41.197,74.278 42.428,82.091 44.439,88.849C49.845,87.759 55.84,87.138 62,87.026L62,66.001ZM62,62.001L62,40.975C55.827,40.863 49.833,40.233 44.447,39.129C42.431,45.893 41.198,53.714 41.025,62.001L62,62.001ZM66,62.001L86.975,62.001C86.803,53.714 85.569,45.893 83.554,39.129C78.165,40.233 72.172,40.863 66,40.975L66,62.001ZM66,66.001L66,87.027C72.16,87.138 78.155,87.76 83.561,88.85C85.572,82.091 86.803,74.278 86.975,66.001L66,66.001ZM66,91.026L66,111.799C72.569,110.552 78.446,103.257 82.3,92.671C77.274,91.691 71.715,91.133 66,91.026ZM62,111.799L62,91.026C56.285,91.133 50.726,91.691 45.7,92.671C49.554,103.257 55.431,110.553 62,111.799ZM62,36.975L62,16.202C55.435,17.448 49.562,24.734 45.708,35.308C50.717,36.302 56.274,36.867 62,36.975ZM66,16.203L66,36.975C71.725,36.867 77.281,36.302 82.292,35.308C78.438,24.735 72.565,17.448 66,16.203ZM90.975,66.001C90.812,74.68 89.595,82.749 87.556,89.768C92.898,91.155 97.304,92.982 100.486,95.139C107.251,87.224 111.492,77.095 111.949,66.001L90.975,66.001ZM97.721,98.122C94.921,96.348 91.003,94.783 86.334,93.585C83.824,100.681 80.417,106.455 76.403,110.368C84.566,108.182 91.878,103.896 97.721,98.122L97.721,98.122ZM41.667,93.584C36.998,94.782 33.08,96.347 30.28,98.121C36.122,103.896 43.435,108.181 51.599,110.367C47.584,106.455 44.176,100.68 41.667,93.584ZM30.381,29.783C33.121,31.583 37.009,33.17 41.679,34.383C44.187,27.303 47.59,21.541 51.598,17.634C43.481,19.808 36.207,24.059 30.381,29.783ZM86.321,34.383C90.99,33.17 94.879,31.583 97.619,29.783C91.793,24.058 84.52,19.807 76.402,17.634C80.41,21.541 83.812,27.303 86.321,34.383L86.321,34.383Z" style="fill:white;fill-rule:nonzero;"/>
        </g>
        <g transform="matrix(1.17579,0,0,1.82475,-27.1924,-21.1123)">
            <text x="21.706px" y="116.533px" style="font-family:'Helvetica';font-size:39.986px;">S <tspan x="58.757px 85.427px 96.686px 107.795px 115.173px 141.844px 164.581px 195.683px 206.942px 220.258px 227.244px 247.237px 266.071px 297.173px 308.432px " y="116.533px 116.533px 116.533px 116.533px 116.533px 116.533px 116.533px 116.533px 116.533px 116.533px 116.533px 116.533px 116.533px 116.533px 116.533px ">E I K O - J O B</tspan></text>
        </g>
        <g transform="matrix(1.17579,0,0,1.82475,-27.1924,-21.1123)">
            <text x="134.02px" y="148.49px" style="font-family:'Helvetica';font-size:23.978px;">C<tspan x="149.731px 166.776px 185.144px 197.763px 212.15px 227.861px " y="148.49px 148.49px 148.49px 148.49px 148.49px 148.49px ">OMPANY</tspan></text>
        </g>
    </g>
</svg>
